# xmcd
#
# Track frame offsets:
#	150
#	10682
#	22947
#	33807
#	44506
#	56240
#	68261
#	80827
#	93838
#	104401
#	119425
#	131918
#	142213
#	152295
#	165081
#	174871
#	186627
#	199755
#	213065
#	225138
#	238265
#	255356
#	265384
#	276035
#
# Disc length: 3790 seconds
#
# Revision: 0
# Processed by: cddbd v1.5.2PL0 Copyright (c) Steve Scherf et al.
# Submitted via: EZCDAudioConverter 1.2.5.1
#
DISCID=3b0ecc18
DTITLE=Aretha Franklin - Ike and Tina Turner - The eletrifyng Aretha Franklin - 
DTITLE=The soul of Ike and Tina Turner
DYEAR=1900
DGENRE=
TTITLE0=Aretha Franklin - Toy made me love yo
TTITLE1=Aretha Franklin - I told yo so
TTITLE2=Aretha Franklin - Rock-a-bye your baby with a dixie melody
TTITLE3=Aretha Franklin - Nobody like you
TTITLE4=Aretha Franklin - Exactly like you
TTITLE5=Aretha Franklin - It's so hearbreakin'
TTITLE6=Aretha Franklin - Rough lover
TTITLE7=Aretha Franklin - Blue holiday
TTITLE8=Aretha Franklin - Just for you
TTITLE9=Aretha Franklin - That lucky old sun
TTITLE10=Aretha Franklin - I surrender, dear
TTITLE11=Aretha Franklin - Acc-cent-tchu-ate the positive
TTITLE12=Ike and Tina Turner - I'm jealous
TTITLE13=Ike and Tina Turner - I idolize you
TTITLE14=Ike and Tina Turner - If
TTITLE15=Ike and Tina Turner - Letter from Tina
TTITLE16=Ike and Tina Turner - You can't love two
TTITLE17=Ike and Tina Turner - I had a notion
TTITLE18=Ike and Tina Turner - A fool in love
TTITLE19=Ike and Tina Turner - Sleepless
TTITLE20=Ike and Tina Turner - Chances are
TTITLE21=Ike and Tina Turner - You can't blame me
TTITLE22=Ike and Tina Turner - You're my baby
TTITLE23=Ike and Tina Turner - The way you love me
EXTD=
EXTT0=
EXTT1=
EXTT2=
EXTT3=
EXTT4=
EXTT5=
EXTT6=
EXTT7=
EXTT8=
EXTT9=
EXTT10=
EXTT11=
EXTT12=
EXTT13=
EXTT14=
EXTT15=
EXTT16=
EXTT17=
EXTT18=
EXTT19=
EXTT20=
EXTT21=
EXTT22=
EXTT23=
PLAYORDER=
